<?xml version="1.0" standalone="no"?>
<!DOCTYPE svg PUBLIC "-//W3C//DTD SVG 20010904//EN"
 "http://www.w3.org/TR/2001/REC-SVG-20010904/DTD/svg10.dtd">
<svg version="1.0" xmlns="http://www.w3.org/2000/svg"
 width="500.000000pt" height="500.000000pt" viewBox="0 0 500.000000 500.000000"
 preserveAspectRatio="xMidYMid meet">

<g transform="translate(0.000000,500.000000) scale(0.100000,-0.100000)"
fill="#000000" stroke="none">
<path d="M2300 4994 c-246 -29 -388 -57 -552 -110 -374 -121 -696 -311 -972
-575 -409 -390 -665 -883 -753 -1449 -25 -160 -25 -547 0 -710 40 -262 115
-506 226 -735 127 -264 272 -467 485 -681 388 -389 854 -622 1416 -711 88 -13
172 -17 355 -17 214 0 257 3 395 27 435 75 828 250 1170 522 95 75 288 267
367 365 516 640 686 1458 469 2251 -199 727 -740 1340 -1437 1633 -314 131
-574 185 -924 191 -115 2 -226 1 -245 -1z m505 -519 c695 -107 1290 -582 1549
-1236 112 -283 164 -631 136 -914 -61 -622 -385 -1161 -900 -1497 -707 -462
-1620 -430 -2298 79 -99 75 -268 237 -344 331 -429 535 -559 1246 -346 1891
147 444 455 831 854 1074 238 145 525 247 774 276 52 6 109 13 125 15 60 9
352 -4 450 -19z"/>
<path d="M2077 3553 c-34 -31 -135 -129 -224 -217 l-161 -159 -78 69 c-42 38
-126 121 -185 184 -60 63 -109 107 -109 98 0 -8 7 -21 16 -29 19 -16 47 -69
36 -69 -4 0 -13 5 -19 11 -18 18 -45 2 -43 -23 4 -49 -1 -66 -20 -71 -10 -3
-21 0 -23 7 -3 8 -8 8 -18 -1 -9 -9 -16 -10 -25 -2 -8 6 -18 9 -24 7 -29 -9
126 -188 273 -315 l58 -50 -80 -96 c-84 -100 -271 -344 -271 -354 0 -4 10 2
22 13 23 20 19 10 -14 -38 -10 -14 -18 -34 -18 -44 0 -14 10 -8 43 24 46 45
57 50 57 27 0 -8 9 -15 20 -15 17 0 19 -6 16 -50 -3 -44 -2 -50 16 -50 23 0
72 50 246 254 70 82 134 154 143 159 12 8 43 -11 140 -85 152 -116 249 -182
256 -174 3 3 -7 16 -23 28 -16 13 -40 34 -54 46 -22 21 -20 20 11 -2 37 -27
64 -32 87 -18 10 7 8 14 -7 33 l-19 24 32 -1 c17 -1 40 -5 51 -9 12 -4 6 6
-18 27 -20 18 -37 37 -37 42 0 5 -7 18 -17 28 -20 23 -2 24 32 2 23 -15 45
-12 45 6 0 8 -181 163 -270 232 l-35 27 148 148 c81 81 147 154 147 162 0 7
14 30 30 51 36 46 37 50 5 50 -23 0 -24 2 -15 20 14 26 6 25 -49 -6 l-46 -25
38 34 c20 19 37 37 37 41 0 12 -21 6 -49 -15 -27 -20 -51 -19 -51 2 0 5 15 26
33 46 59 68 62 73 42 73 -9 0 -44 -26 -78 -57z m43 13 c0 -2 -8 -10 -17 -17
-16 -13 -17 -12 -4 4 13 16 21 21 21 13z m-40 -49 c0 -2 -10 -12 -22 -23 l-23
-19 19 23 c18 21 26 27 26 19z m-666 -182 c20 -25 35 -45 34 -45 -2 0 -26 23
-53 51 -28 27 -43 47 -34 44 8 -3 32 -26 53 -50z m486 -59 c0 -2 -8 -10 -17
-17 -16 -13 -17 -12 -4 4 13 16 21 21 21 13z m30 -60 c0 -2 -8 -10 -17 -17
-16 -13 -17 -12 -4 4 13 16 21 21 21 13z m-395 -136 c10 -11 16 -20 13 -20 -3
0 -13 9 -23 20 -10 11 -16 20 -13 20 3 0 13 -9 23 -20z m405 -210 c32 -28 30
-28 -17 6 -29 20 -53 38 -53 40 0 8 35 -14 70 -46z m-270 -64 c0 -2 -8 -10
-17 -17 -16 -13 -17 -12 -4 4 13 16 21 21 21 13z"/>
<path d="M2860 3602 c0 -4 20 -30 45 -59 36 -41 42 -53 31 -62 -10 -8 -19 -6
-39 9 -14 11 -33 20 -43 20 -14 0 -9 -10 21 -41 l40 -40 -49 27 c-47 26 -48
26 -41 5 5 -18 2 -21 -19 -21 l-26 0 33 -48 c19 -26 32 -52 30 -57 -2 -6 64
-77 146 -159 l149 -148 -122 -99 c-187 -153 -193 -158 -177 -169 10 -5 25 -3
44 6 53 28 50 9 -9 -51 -32 -32 -49 -55 -39 -51 11 5 37 9 57 10 l37 1 -22
-23 c-18 -20 -19 -24 -7 -32 25 -16 44 -11 88 21 63 47 50 28 -19 -26 -33 -26
-58 -50 -54 -53 7 -7 152 92 283 194 l107 84 30 -34 c17 -18 79 -92 139 -162
156 -184 206 -234 234 -234 14 0 21 4 17 11 -4 6 -8 28 -9 50 -1 31 3 39 16
39 9 0 21 7 26 16 8 14 15 11 51 -25 24 -24 45 -40 48 -37 4 3 -9 29 -27 58
-23 38 -26 48 -11 34 33 -30 35 -12 3 25 -16 19 -62 79 -104 134 -41 55 -107
138 -146 185 -40 47 -72 88 -72 91 0 4 44 46 98 95 161 146 287 309 203 265
-11 -6 -22 -7 -25 -3 -3 5 -18 7 -34 4 -29 -4 -30 -4 -26 43 3 53 -14 69 -46
40 -34 -31 -25 10 12 56 17 21 29 41 26 45 -3 3 -73 -63 -154 -147 -82 -83
-166 -165 -187 -181 l-38 -31 -218 217 c-191 189 -251 239 -251 208z m64 -48
c5 -14 4 -15 -9 -4 -17 14 -19 20 -6 20 5 0 12 -7 15 -16z m737 -181 c-5 -10
-27 -34 -47 -53 -38 -35 -27 -15 25 43 28 31 36 34 22 10z m-161 -287 c0 -2
-8 -10 -17 -17 -16 -13 -17 -12 -4 4 13 16 21 21 21 13z m-330 -159 c0 -2 -20
-18 -45 -36 -25 -18 -45 -30 -45 -27 0 6 79 66 87 66 1 0 3 -1 3 -3z m-100
-71 c0 -2 -8 -10 -17 -17 -16 -13 -17 -12 -4 4 13 16 21 21 21 13z m321 -83
c13 -16 12 -17 -3 -4 -10 7 -18 15 -18 17 0 8 8 3 21 -13z"/>
<path d="M1665 1865 c-128 -46 -136 -229 -12 -285 38 -18 67 -20 290 -20 l247
0 0 -258 c0 -279 6 -326 56 -423 126 -250 464 -327 689 -156 67 51 126 128
157 205 21 54 23 72 26 345 l3 287 93 0 c118 0 170 23 204 90 12 24 22 55 22
69 0 42 -39 109 -78 133 l-37 23 -810 2 c-681 2 -816 0 -850 -12z"/>
</g>
</svg>
